PathFileType	4	(X/Y/Z)	./resultDataOpenSim/trcMotMarkerGrf/sub06/qtm-15-07.trc
DataRate	CameraRate	NumFrames	NumMarkers	Units	OrigDataRate	OrigDataStartFrame	OrigNumFrames
250.000000	250.000000	12	24	m	250.000000	332	530
Frame#	Time	L.Toe.Tip			R.Toe.Tip			L.Ankle.Lat			R.Ankle.Lat			L.Ankle.Med			R.Ankle.Med			L.Heel			R.Heel			L.Knee.Lat			R.Knee.Lat			L.Knee.Med			R.Knee.Med			L.Thigh.Upper			R.Thigh.Upper			L.ASIS			R.ASIS			V.Sacral			L.Acromium			R.Acromium			C7			L.Elbow			R.Elbow			L.Wrist.Lat			R.Wrist.Lat
		X1	Y1	Z1	X2	Y2	Z2	X3	Y3	Z3	X4	Y4	Z4	X5	Y5	Z5	X6	Y6	Z6	X7	Y7	Z7	X8	Y8	Z8	X9	Y9	Z9	X10	Y10	Z10	X11	Y11	Z11	X12	Y12	Z12	X13	Y13	Z13	X14	Y14	Z14	X15	Y15	Z15	X16	Y16	Z16	X17	Y17	Z17	X18	Y18	Z18	X19	Y19	Z19	X20	Y20	Z20	X21	Y21	Z21	X22	Y22	Z22	X23	Y23	Z23	X24	Y24	Z24

332	1.324	0.59257679	0.15813664	-0.068105895	0.95736796	0.035607614	0.071911083	0.60547183	0.28750559	-0.10520125	0.82012108	0.060547262	0.09491178	0.62887473	0.29457779	-0.024542829	0.84154412	0.082790204	0.0084418618	0.56335939	0.34969331	-0.057672958	0.76564323	0.040356798	0.035824114	0.95045045	0.42187325	-0.15423767	0.9162066	0.43868712	0.13086005	0.95296182	0.41297196	-0.026285555	0.87799553	0.43139918	0.0086666212	0.79668484	0.78734026	-0.14922877	0.81895254	0.80489083	0.19415314	0.86907544	0.84210029	-0.10878814	0.89577364	0.86329812	0.1321399	0.69688825	0.92302613	0.028620444	0.86101597	1.3338355	-0.15685886	0.84944939	1.3058172	0.20299291	0.77468055	1.3599349	0.021291671	0.87525553	1.0076356	-0.22177315	0.7779156	0.99362656	0.27864045	1.0840531	0.88870417	-0.16111489	0.98583485	0.85690031	0.31899935
333	1.328	0.60632201	0.15846553	-0.068511278	0.95736945	0.035610848	0.07185554	0.61702296	0.28804106	-0.10552575	0.82006425	0.060710658	0.094944193	0.6401964	0.29538087	-0.02479253	0.84150996	0.082978211	0.0084492444	0.57379874	0.34951348	-0.05786588	0.76563735	0.040565178	0.035828084	0.96050588	0.42615641	-0.15424128	0.91628623	0.43899668	0.1303938	0.96320759	0.41743994	-0.026189307	0.87799272	0.43212785	0.00807311	0.80309698	0.79036933	-0.1495209	0.82365359	0.80612594	0.19363362	0.87515434	0.84488849	-0.10840493	0.90087215	0.8649781	0.13226741	0.70199028	0.9250156	0.028170523	0.86558561	1.3358777	-0.15699011	0.85417427	1.3086328	0.20287981	0.77918975	1.3620613	0.021172945	0.8768828	1.0099578	-0.22167631	0.78630232	0.99534751	0.27872777	1.0841758	0.88701915	-0.16442538	0.99861883	0.86403263	0.31577022
334	1.332	0.62018633	0.15852791	-0.068933298	0.95737809	0.035611568	0.071816039	0.62861499	0.28830604	-0.10593147	0.82005875	0.060882569	0.094975432	0.65149657	0.29589149	-0.025016004	0.84149281	0.083185361	0.0084777442	0.58421374	0.34899483	-0.058058557	0.76565729	0.040783725	0.0358252	0.97045679	0.43038039	-0.15422884	0.91635247	0.43932613	0.12999079	0.97361395	0.42185577	-0.026072993	0.87791292	0.43281582	0.0073826699	0.80949015	0.7933599	-0.14977373	0.82830518	0.80734392	0.19305565	0.88122472	0.84764672	-0.10798932	0.90610104	0.86657562	0.13234408	0.70716747	0.92692775	0.027666206	0.87014728	1.337869	-0.15711604	0.85891571	1.3113943	0.20275155	0.78370306	1.3641528	0.021064931	0.87850806	1.0122528	-0.2218041	0.79482624	0.99708775	0.27882356	1.0842073	0.88536034	-0.16775061	1.0112325	0.87124858	0.31248003
335	1.336	0.6341641	0.15832819	-0.069376512	0.95739607	0.03561019	0.071791564	0.64018077	0.28828871	-0.1063288	0.82010714	0.061072225	0.095009943	0.6627898	0.29612093	-0.025200344	0.84149185	0.083415861	0.0085359799	0.59463298	0.34812604	-0.058273431	0.7657026	0.041025838	0.035820476	0.98030438	0.43454559	-0.15419053	0.91643921	0.43968488	0.12968649	0.98414712	0.42619357	-0.025860858	0.87770708	0.43338962	0.0066354348	0.8158447	0.79624286	-0.15008859	0.83285104	0.8085047	0.19255096	0.88723268	0.8503101	-0.10764343	0.91140081	0.86810622	0.13241894	0.71248444	0.92877443	0.027237769	0.874707	1.3398299	-0.15722629	0.86366687	1.3140983	0.20261191	0.7882227	1.3661974	0.020965098	0.88011509	1.0144974	-0.22230589	0.80345639	0.9988308	0.27891502	1.0841471	0.8837301	-0.17108854	1.0236564	0.8785326	0.30914353
336	1.34	0.64830886	0.15788142	-0.069886771	0.9574235	0.035607369	0.071781688	0.65173735	0.28794668	-0.10668236	0.82020001	0.061291114	0.095055393	0.6741273	0.29606345	-0.025382612	0.84150486	0.083676425	0.0086248998	0.60507758	0.34691182	-0.058518854	0.76577026	0.041306356	0.035819872	0.99005122	0.43864933	-0.15412357	0.9165623	0.44007157	0.12948711	0.99452945	0.43045644	-0.02555061	0.87755754	0.43385216	0.0059535763	0.8221583	0.79900899	-0.15047152	0.83728228	0.8095926	0.19218773	0.89310415	0.85281347	-0.10748809	0.91660092	0.86954219	0.13254711	0.71798428	0.93057026	0.02704513	0.87925977	1.3417546	-0.15732301	0.86841956	1.3167437	0.20246468	0.79274369	1.3681735	0.020876644	0.88170629	1.0166822	-0.22312645	0.8121363	1.0005655	0.27899851	1.0840147	0.88212916	-0.17442372	1.035819	0.8858293	0.30581012
337	1.344	0.66268246	0.1572121	-0.070513774	0.9574582	0.035603215	0.07178578	0.66336931	0.28724334	-0.10702663	0.82032026	0.06153666	0.095114813	0.68553397	0.29571364	-0.025600107	0.84153368	0.083971108	0.0087337664	0.61556631	0.34536921	-0.058797854	0.76585503	0.04163374	0.035827969	0.99970922	0.44268072	-0.15402025	0.91671369	0.44047401	0.12936753	1.0045125	0.43465539	-0.025220682	0.87767409	0.43426366	0.0054798836	0.828435	0.80168017	-0.15086888	0.8415846	0.81060055	0.19196411	0.89881773	0.85518619	-0.10749313	0.9216013	0.87084698	0.13273795	0.72368693	0.93231617	0.027184017	0.88379817	1.3436254	-0.15741067	0.87316891	1.3193231	0.20231124	0.79725874	1.3700654	0.020814608	0.88330899	1.0188201	-0.22398353	0.82080096	1.0022855	0.27907265	1.0838295	0.88056052	-0.17774018	1.0476639	0.89307388	0.30252154
338	1.348	0.6772756	0.15634036	-0.071255119	0.95749715	0.035597262	0.071801825	0.67510744	0.2861886	-0.10738467	0.82044906	0.061790178	0.095182973	0.6970037	0.29507583	-0.025862907	0.84158356	0.084297562	0.0088494489	0.62611685	0.34351098	-0.059106775	0.7659503	0.042006538	0.035846402	1.0092888	0.44662812	-0.1538744	0.91687828	0.44087546	0.12928799	1.0141159	0.43878023	-0.024924408	0.87811074	0.43471204	0.0052406128	0.83467616	0.80427256	-0.15124912	0.8457847	0.81152403	0.19188076	0.90443701	0.85753444	-0.1074819	0.92646968	0.87201498	0.13296565	0.72952557	0.93399997	0.027560224	0.88832312	1.3454269	-0.15749073	0.87791146	1.3218198	0.20214879	0.80176758	1.3718629	0.020796457	0.88495317	1.0209321	-0.22459651	0.82941547	1.0039902	0.27913523	1.0835842	0.87902776	-0.18102914	1.059237	0.90026244	0.2992449
339	1.352	0.69201892	0.15527168	-0.072068215	0.95753837	0.035588959	0.071826574	0.686891	0.28484404	-0.1077377	0.82057773	0.062041971	0.095251739	0.70853412	0.29415866	-0.026168516	0.84165595	0.084652016	0.0089664221	0.6367235	0.34133298	-0.059417117	0.76605176	0.04241639	0.03587214	1.0187914	0.45048518	-0.15369329	0.91705122	0.44125991	0.12921605	1.0235143	0.4427958	-0.024638864	0.87875238	0.43528146	0.0050771995	0.8408893	0.80679148	-0.15161816	0.85000746	0.81238097	0.19191135	0.91003706	0.85990565	-0.10734321	0.93130375	0.87305666	0.13321699	0.73533577	0.93560287	0.027904827	0.89284389	1.3471494	-0.15756579	0.88264344	1.324218	0.20197297	0.80627594	1.3735587	0.02081793	0.88665246	1.0230319	-0.22487179	0.83798988	1.005679	0.27918526	1.0832607	0.87753041	-0.18428414	1.0706413	0.90744573	0.29591632
340	1.356	0.70684562	0.15400383	-0.072914635	0.95758066	0.035578666	0.071857096	0.69868053	0.28327552	-0.10808259	0.82071287	0.062309805	0.095318557	0.72009861	0.29297965	-0.0265042	0.84174709	0.085035559	0.0090845341	0.64735689	0.33882605	-0.059697219	0.76615973	0.042856945	0.035899733	1.0282043	0.45424898	-0.1534979	0.91724078	0.44161979	0.12914292	1.032815	0.44668147	-0.02435049	0.87944026	0.43601199	0.0047704859	0.84709168	0.80923628	-0.15198711	0.854447	0.81322985	0.19190431	0.91562707	0.86223201	-0.10715122	0.9361265	0.87398443	0.13349671	0.74099107	0.93710828	0.028003009	0.89736987	1.3487896	-0.15764308	0.88736267	1.3265139	0.20178168	0.81078882	1.3751551	0.020844028	0.88840604	1.0251227	-0.22486624	0.84656677	1.0073445	0.27922452	1.0828593	0.8760687	-0.18749811	1.0819375	0.91466417	0.29252186
341	1.36	0.72172654	0.15254574	-0.073776749	0.95762262	0.035568351	0.071891451	0.71052219	0.28151193	-0.10845685	0.82086537	0.062621157	0.095385518	0.73167919	0.2915595	-0.026859079	0.841858	0.085449403	0.0092002384	0.65801137	0.33600267	-0.059968121	0.76627445	0.04333595	0.035929752	1.037489	0.45791736	-0.15331541	0.91746457	0.44196387	0.12908668	1.0419677	0.45046796	-0.02412118	0.88008754	0.43688876	0.0042341647	0.85329727	0.81159593	-0.15235735	0.85921534	0.81413363	0.19166457	0.92121506	0.8644371	-0.10702424	0.94096558	0.87484294	0.13378519	0.74650484	0.93851047	0.027853944	0.90190291	1.3503511	-0.15773078	0.89206851	1.3287125	0.20157666	0.81531024	1.3766594	0.020837157	0.89020631	1.0271937	-0.22469229	0.85518713	1.0089714	0.27925616	1.0824002	0.87464893	-0.19066646	1.0931352	0.9219243	0.28909096
342	1.364	0.73667393	0.15092507	-0.074658305	0.95766371	0.03556037	0.071927667	0.72243899	0.27956013	-0.10887627	0.82103393	0.062984702	0.095450538	0.74337522	0.28989809	-0.027251221	0.84200118	0.085883545	0.0093041805	0.66871797	0.33289493	-0.060287632	0.76639061	0.043874263	0.035970682	1.0465897	0.4614885	-0.15316361	0.91774604	0.44231525	0.12907784	1.0508167	0.45422971	-0.024014234	0.88067095	0.43786756	0.0035525703	0.85951186	0.81385612	-0.15272921	0.86416252	0.81507697	0.19119639	0.92691991	0.86653655	-0.10695047	0.94591635	0.87571307	0.13401879	0.75195535	0.93981534	0.027573303	0.90643862	1.3518395	-0.15783194	0.89675908	1.3308206	0.20136262	0.81984276	1.378076	0.020787694	0.89204234	1.0292193	-0.22448025	0.86385177	1.0105472	0.27928669	1.0818995	0.87327236	-0.19379079	1.1042306	0.92921706	0.28565278
343	1.368	0.75171247	0.14917397	-0.075576487	0.95770534	0.03555512	0.071963073	0.73436578	0.27742691	-0.10930048	0.82120281	0.063388641	0.095503642	0.75531312	0.28798175	-0.027701665	0.84219405	0.086316111	0.0093873359	0.6794913	0.32951722	-0.060659915	0.76650153	0.044481006	0.036024207	1.0554889	0.46496216	-0.15303496	0.91809918	0.44269719	0.12912587	1.0592263	0.4580401	-0.024008208	0.88116655	0.4388701	0.0028629334	0.86574777	0.8160207	-0.1530965	0.86895944	0.81596411	0.19072199	0.93287456	0.86858747	-0.10684065	0.9510481	0.87664506	0.13412677	0.75738443	0.94103572	0.027255942	0.91097381	1.3532558	-0.15794359	0.9014304	1.3328422	0.20114305	0.82438257	1.3794079	0.020707584	0.89390224	1.0311755	-0.22435509	0.87253787	1.0120762	0.27933252	1.0813536	0.87192085	-0.19688065	1.1152097	0.93653001	0.2822175
